<svg width="152" height="32" viewBox="0 0 152 32" fill="none" xmlns="http://www.w3.org/2000/svg">
<path d="M16 32C24.8366 32 32 24.8366 32 16C32 7.16344 24.8366 0 16 0C7.16344 0 0 7.16344 0 16C0 24.8366 7.16344 32 16 32Z" fill="#1D1841"/>
<path d="M17.3906 23.9995H20.9405L25.2264 7.99951H21.6765L17.3906 23.9995Z" fill="#FF9996"/>
<path fill-rule="evenodd" clip-rule="evenodd" d="M6.77148 18.8606C6.77148 16.0211 9.07335 13.7192 11.9128 13.7192C14.7502 13.7192 17.0542 16.0211 17.0542 18.8606C17.0542 21.7 14.7523 24.0019 11.9128 24.0019C9.07335 24.0019 6.77148 21.7 6.77148 18.8606ZM10.3228 18.8605C10.3228 19.7373 11.0332 20.4498 11.9121 20.4498C12.7889 20.4498 13.5015 19.7373 13.5015 18.8605C13.5015 17.9837 12.7911 17.2711 11.9121 17.2711C11.0353 17.2711 10.3228 17.9837 10.3228 18.8605Z" fill="#FF9996"/>
<path fill-rule="evenodd" clip-rule="evenodd" d="M48.9611 21.8734C51.7557 21.8776 54.0619 19.4264 54.0661 16.2478C54.0704 13.0691 51.7685 10.6136 48.9739 10.6094C47.5445 10.6072 46.4971 11.0958 45.7931 11.9064L45.7952 10.9038L42.5952 10.8995L42.5781 25.8328L45.7781 25.8371L45.7845 20.5678C46.4864 21.3806 47.5317 21.8712 48.9611 21.8734ZM48.3293 13.6386C49.8013 13.6386 50.868 14.6434 50.8659 16.2434C50.8637 17.8434 49.7971 18.8482 48.3251 18.846C46.8531 18.8439 45.7864 17.8391 45.7885 16.2391C45.7885 14.6391 46.8573 13.6364 48.3293 13.6386Z" fill="#1D1841"/>
<path fill-rule="evenodd" clip-rule="evenodd" d="M57.4905 6.13965C56.4452 6.13752 55.5705 7.01219 55.5684 8.05752C55.5684 9.10285 56.4409 9.97752 57.4862 9.97965C58.5316 9.98178 59.4062 9.10712 59.4084 8.06179C59.4105 7.01645 58.5358 6.14179 57.4905 6.13965ZM59.0865 10.9203L55.8865 10.916L55.8737 21.5827L59.0737 21.5869L59.0865 10.9203Z" fill="#1D1841"/>
<path fill-rule="evenodd" clip-rule="evenodd" d="M67.7989 21.8963C70.5936 21.9006 72.8997 19.4494 72.904 16.2707C72.9083 13.0921 70.6064 10.6345 67.8117 10.6323C66.3824 10.6302 65.3371 11.1187 64.6309 11.9294L64.6331 10.9267L61.4331 10.9225L61.416 25.8558L64.616 25.8601L64.6224 20.5907C65.3243 21.4035 66.3696 21.8942 67.7989 21.8963ZM67.1678 13.6616C68.6398 13.6616 69.7065 14.6664 69.7043 16.2664C69.7022 17.8664 68.6334 18.8712 67.1614 18.8691C65.6894 18.8669 64.6227 17.8621 64.6249 16.2621C64.627 14.6621 65.6958 13.6595 67.1678 13.6616Z" fill="#1D1841"/>
<path fill-rule="evenodd" clip-rule="evenodd" d="M79.8433 10.645C76.7073 10.6408 74.1879 13.092 74.1836 16.2706C74.1793 19.4514 76.6945 21.9048 79.8305 21.909C82.9665 21.9133 85.486 19.4621 85.4903 16.2834C85.4945 13.1048 82.9793 10.6493 79.8433 10.645ZM79.8385 13.762C81.2252 13.762 82.2918 14.7668 82.2897 16.2814C82.2876 17.7961 81.2188 18.7966 79.8321 18.7966C78.4454 18.7966 77.3788 17.7918 77.3809 16.2772C77.383 14.7625 78.4518 13.7598 79.8385 13.762Z" fill="#1D1841"/>
<path d="M100.913 18.4361C100.911 20.8894 98.7753 21.9326 96.4713 21.9305C94.3379 21.9284 92.7166 21.1156 91.8867 19.3854L94.6622 17.811C94.9395 18.6217 95.5347 19.0718 96.4734 19.0718C97.2414 19.0718 97.6254 18.8393 97.6254 18.4126C97.6275 17.2393 92.3774 17.8516 92.3817 14.1609C92.3838 11.8356 94.3486 10.6644 96.5673 10.6665C98.2953 10.6686 99.8313 11.4388 100.725 12.9534L97.9923 14.4233C97.6937 13.8686 97.2691 13.4846 96.5651 13.4825C96.0105 13.4825 95.6691 13.6937 95.6691 14.0777C95.667 15.2937 100.917 14.4894 100.913 18.4361Z" fill="#1D1841"/>
<path fill-rule="evenodd" clip-rule="evenodd" d="M113.346 21.6506L113.359 10.984L110.159 10.9797L110.157 11.9824C109.455 11.1696 108.409 10.6789 106.98 10.6768C104.185 10.6725 101.879 13.1237 101.875 16.3024C101.871 19.481 104.173 21.9365 106.967 21.9408C108.397 21.9429 109.442 21.4544 110.148 20.6437L110.146 21.6464L113.346 21.6506ZM107.615 13.7105C109.087 13.7105 110.154 14.7153 110.152 16.3153C110.15 17.9153 109.081 18.9159 107.611 18.918C106.139 18.9159 105.072 17.9111 105.075 16.3111C105.075 14.7111 106.143 13.7084 107.615 13.7105Z" fill="#1D1841"/>
<path fill-rule="evenodd" clip-rule="evenodd" d="M118.756 9.71061L121.828 9.71487L124.307 6.73034L120.467 6.72607L118.756 9.71061ZM125.783 21.6655L125.795 10.9989L122.595 10.9946L122.589 16.8186C122.587 18.3333 121.776 19.0159 120.603 19.0138C119.579 19.0138 118.747 18.393 118.749 17.0703L118.755 10.9903L115.555 10.9861L115.547 17.5354C115.545 20.4154 117.377 21.9535 119.532 21.9557C120.94 21.9578 122.009 21.4479 122.585 20.6586L122.583 21.6613L125.783 21.6655Z" fill="#1D1841"/>
<path fill-rule="evenodd" clip-rule="evenodd" d="M139.073 21.6808L139.09 6.74743L135.89 6.74316L135.883 12.0125C135.181 11.1997 134.136 10.709 132.707 10.7069C129.912 10.7026 127.606 13.1538 127.602 16.3325C127.597 19.5112 129.899 21.9666 132.694 21.9709C134.123 21.973 135.168 21.4845 135.875 20.6738L135.873 21.6765L139.073 21.6808ZM133.343 13.7405C134.815 13.7405 135.881 14.7453 135.879 16.3453C135.877 17.9453 134.808 18.9458 133.338 18.948C131.866 18.9458 130.8 17.941 130.802 16.341C130.802 14.741 131.871 13.7384 133.343 13.7405Z" fill="#1D1841"/>
<path fill-rule="evenodd" clip-rule="evenodd" d="M148.89 18.3231C148.462 18.7924 147.715 19.1316 146.84 19.1316C145.667 19.1295 144.686 18.7455 144.282 17.634L151.856 17.6425C151.943 17.2372 151.986 16.8105 151.986 16.3625C151.99 13.1412 149.688 10.7284 146.574 10.7241C143.203 10.7199 140.897 13.1711 140.893 16.3497C140.888 19.5284 143.148 21.9839 146.796 21.9881C148.822 21.9924 150.401 21.2457 151.448 19.7972L148.89 18.3231ZM146.548 13.5635C147.508 13.5635 148.468 14.0136 148.807 15.2509L144.221 15.2467C144.522 14.1587 145.332 13.5613 146.548 13.5635Z" fill="#1D1841"/>
</svg>
